HIERARCHY
ROOT Hips
{
	OFFSET 0.00000 0.00000 0.00000
	CHANNELS 6 Xposition Yposition Zposition Zrotation Yrotation Xrotation 
	JOINT LHipJoint
	{
		OFFSET 0 0 0
		CHANNELS 3 Zrotation Yrotation Xrotation
		JOINT LeftUpLeg
		{
			OFFSET 1.32989 -1.57253 0.78074
			CHANNELS 3 Zrotation Yrotation Xrotation
			JOINT LeftLeg
			{
				OFFSET 2.24323 -6.16323 0.00000
				CHANNELS 3 Zrotation Yrotation Xrotation
				JOINT LeftFoot
				{
					OFFSET 2.32677 -6.39275 0.00000
					CHANNELS 3 Zrotation Yrotation Xrotation
					JOINT LeftToeBase
					{
						OFFSET 0.18686 -0.51340 1.95973
						CHANNELS 3 Zrotation Yrotation Xrotation
						End Site
						{
							OFFSET 0.00000 -0.00000 1.02033
						}
					}
				}
			}
		}
	}
	JOINT RHipJoint
	{
		OFFSET 0 0 0
		CHANNELS 3 Zrotation Yrotation Xrotation
		JOINT RightUpLeg
		{
			OFFSET -1.27392 -1.57253 0.78074
			CHANNELS 3 Zrotation Yrotation Xrotation
			JOINT RightLeg
			{
				OFFSET -2.19978 -6.04385 0.00000
				CHANNELS 3 Zrotation Yrotation Xrotation
				JOINT RightFoot
				{
					OFFSET -2.29380 -6.30216 0.00000
					CHANNELS 3 Zrotation Yrotation Xrotation
					JOINT RightToeBase
					{
						OFFSET -0.24624 -0.67655 1.94854
						CHANNELS 3 Zrotation Yrotation Xrotation
						End Site
						{
							OFFSET -0.00000 -0.00000 1.03267
						}
					}
				}
			}
		}
	}
	JOINT LowerBack
	{
		OFFSET 0 0 0
		CHANNELS 3 Zrotation Yrotation Xrotation
		JOINT Spine
		{
			OFFSET -0.05982 2.08655 0.02100
			CHANNELS 3 Zrotation Yrotation Xrotation
			JOINT Spine1
			{
				OFFSET 0.04735 2.08455 -0.01795
				CHANNELS 3 Zrotation Yrotation Xrotation
				JOINT Neck
				{
					OFFSET 0 0 0
					CHANNELS 3 Zrotation Yrotation Xrotation
					JOINT Neck1
					{
						OFFSET -0.10038 1.43781 0.03084
						CHANNELS 3 Zrotation Yrotation Xrotation
						JOINT Head
						{
							OFFSET 0.07701 1.43632 -0.18495
							CHANNELS 3 Zrotation Yrotation Xrotation
							End Site
							{
								OFFSET 0.02744 1.45633 -0.07361
							}
						}
					}
				}
				JOINT LeftShoulder
				{
					OFFSET 0 0 0
					CHANNELS 3 Zrotation Yrotation Xrotation
					JOINT LeftArm
					{
						OFFSET 2.75061 0.74389 0.25227
						CHANNELS 3 Zrotation Yrotation Xrotation
						JOINT LeftForeArm
						{
							OFFSET 4.36901 -0.00000 0.00000
							CHANNELS 3 Zrotation Yrotation Xrotation
							JOINT LeftHand
							{
								OFFSET 3.21737 -0.00000 -0.00000
								CHANNELS 3 Zrotation Yrotation Xrotation
								JOINT LeftFingerBase
								{
									OFFSET 0 0 0
									CHANNELS 3 Zrotation Yrotation Xrotation
									JOINT LeftHandIndex1
									{
										OFFSET 0.56431 -0.00000 0.00000
										CHANNELS 3 Zrotation Yrotation Xrotation
										End Site
										{
											OFFSET 0.45496 -0.00000 0.00000
										}
									}
								}
								JOINT LThumb
								{
									OFFSET 0 0 0
									CHANNELS 3 Zrotation Yrotation Xrotation
									End Site
									{
										OFFSET 0.46191 -0.00000 0.46191
									}
								}
							}
						}
					}
				}
				JOINT RightShoulder
				{
					OFFSET 0 0 0
					CHANNELS 3 Zrotation Yrotation Xrotation
					JOINT RightArm
					{
						OFFSET -2.97379 0.79094 0.48377
						CHANNELS 3 Zrotation Yrotation Xrotation
						JOINT RightForeArm
						{
							OFFSET -4.34118 -0.00000 -0.00000
							CHANNELS 3 Zrotation Yrotation Xrotation
							JOINT RightHand
							{
								OFFSET -3.09531 -0.00000 0.00000
								CHANNELS 3 Zrotation Yrotation Xrotation
								JOINT RightFingerBase
								{
									OFFSET 0 0 0
									CHANNELS 3 Zrotation Yrotation Xrotation
									JOINT RightHandIndex1
									{
										OFFSET -0.59745 -0.00000 0.00000
										CHANNELS 3 Zrotation Yrotation Xrotation
										End Site
										{
											OFFSET -0.48168 -0.00000 0.00000
										}
									}
								}
								JOINT RThumb
								{
									OFFSET 0 0 0
									CHANNELS 3 Zrotation Yrotation Xrotation
									End Site
									{
										OFFSET -0.48903 -0.00000 0.48903
									}
								}
							}
						}
					}
				}
			}
		}
	}
}
MOTION
Frames: 7
Frame Time: .0083333
12.2883 15.7401 12.3049 119.8230 152.1710 -77.3495 0.0000 0.0000 0.0000 71.0865 -27.7086 -39.1296 2.7212 10.2295 29.7232 18.8062 26.9422 -87.6155 4.8280 13.1875 40.0743 0.0000 0.0000 0.0000 19.1527 3.0271 14.4193 0.0000 0.0000 -0.0000 5.5348 -43.3293 6.7210 -2.9930 -10.6838 31.2207 -15.3607 0.5515 15.8365 -2.6900 -2.6572 -2.5085 6.3146 -0.3512 -11.3077 -7.0203 0.3633 -20.9423 12.3259 1.8690 -3.8261 5.1315 1.5803 2.0132 0.0000 -0.0000 0.0000 4.1989 -18.2738 -51.0224 42.9594 -49.7287 -20.6698 -0.0000 0.0000 -39.8972 103.2010 -44.3500 -108.5494 -7.1250 0.0000 -0.0000 162.2620 -47.4533 -178.8930 0.0000 -0.0000 0.0000 3.5686 -13.3140 -35.2203 -19.5677 30.1180 -5.3127 0.0000 -0.0000 -5.1982 -44.0665 31.0529 -26.5324 7.1250 -0.0000 -0.0000 -6.9149 9.7249 -8.0374
12.2651 15.6430 11.7806 119.7270 156.0120 -79.6896 0.0000 0.0000 0.0000 66.3209 -17.0487 -43.8137 3.1053 10.8635 31.8210 11.5264 31.1927 -73.9796 4.0298 12.2000 36.4432 0.0000 0.0000 0.0000 20.7955 2.9664 12.9670 0.0000 0.0000 0.0000 5.7493 -43.7848 6.3815 -2.5743 -9.9717 28.8851 -16.1473 0.5906 16.7826 -2.3109 -2.8501 -2.0814 7.2542 -0.3928 -11.2751 -6.9755 0.1607 -21.1807 12.6362 1.4430 -2.6454 5.2079 1.3883 2.4498 0.0000 -0.0000 0.0000 2.5720 -17.6006 -50.2751 39.6889 -47.8845 -18.2081 -0.0000 0.0000 -41.2553 104.7952 -44.1158 -110.7781 -7.1250 0.0000 -0.0000 162.9381 -45.9098 -179.6054 0.0000 -0.0000 0.0000 8.7664 -16.9500 -29.7792 -20.1617 30.8367 -5.6140 0.0000 -0.0000 -7.4891 -43.4893 29.3376 -24.9279 7.1250 -0.0000 -0.0000 -7.0764 7.5286 -8.0001
12.2293 15.5147 11.2071 119.9310 160.2050 -82.1474 0.0000 0.0000 0.0000 60.2737 -6.6957 -49.8675 3.7279 11.7892 34.9904 4.2620 32.7011 -58.5578 2.7767 10.3244 30.0339 0.0000 0.0000 0.0000 22.0007 2.5335 11.6703 0.0000 -0.0000 0.0000 5.8514 -43.0379 4.2147 -2.8680 -10.4782 30.5395 -16.9002 0.4750 17.6772 -1.9453 -3.2450 -1.7016 8.2168 -0.5338 -11.2001 -7.0627 -0.0403 -20.8501 13.0635 1.0959 -2.3646 5.3293 1.2118 2.5269 0.0000 -0.0000 0.0000 1.0933 -16.8275 -49.4719 34.9063 -44.7451 -14.7473 -0.0000 0.0000 -42.1409 103.9260 -44.6219 -109.4431 -7.1250 0.0000 -0.0000 162.8790 -46.8943 -179.1762 0.0000 -0.0000 0.0000 13.2486 -20.1003 -24.6121 -20.8275 31.6265 -5.9592 0.0000 -0.0000 -11.6072 -45.4673 30.6176 -27.3698 7.1250 -0.0000 -0.0000 -7.7895 9.8518 -9.0846
12.1872 15.3462 10.6036 120.4350 164.5070 -84.9838 0.0000 0.0000 0.0000 50.9723 4.4763 -57.6481 4.6242 12.9477 39.1730 -0.0134 29.8599 -41.6348 0.9838 6.3136 17.6971 0.0000 0.0000 0.0000 23.2177 1.5588 10.5755 0.0000 -0.0000 0.0000 4.3761 -40.3515 8.0920 -2.0615 -8.9930 25.7735 -17.4042 0.2393 18.7413 -1.5323 -3.7800 -1.3246 9.1507 -0.7496 -11.1696 -6.9770 -0.4882 -20.0798 13.6880 0.3169 -1.9857 5.4450 0.8064 2.6200 -0.0000 0.0000 0.0000 -0.0307 -16.1412 -49.0574 29.5282 -40.4856 -11.1020 -0.0000 0.0000 -42.0018 103.9227 -46.2867 -108.9300 -7.1250 0.0000 -0.0000 164.2613 -47.5166 -178.9991 -0.0000 0.0000 0.0000 17.1591 -22.6143 -21.5637 -21.1963 32.0568 -6.1538 0.0000 -0.0000 -14.6788 -39.8192 28.9078 -21.9509 7.1250 -0.0000 -0.0000 -5.1599 5.6054 -5.6612
12.1441 15.1336 9.9711 121.1680 168.8970 -88.2472 0.0000 0.0000 0.0000 39.8288 13.1199 -65.0484 5.6953 14.1264 43.7461 0.4919 17.6404 -28.8631 0.0887 1.9206 5.2862 0.0000 0.0000 0.0000 24.2086 0.0280 9.8432 0.0000 -0.0000 0.0000 2.4095 -36.0221 13.4299 -1.2052 -6.9649 19.6115 -17.7912 -0.1015 20.0348 -1.0703 -4.4731 -0.9504 10.1462 -1.0372 -11.2008 -6.3753 -0.8645 -19.6448 13.8826 -0.4528 -1.5680 5.3414 0.4001 2.7659 0.0000 -0.0000 0.0000 -0.9776 -15.3083 -48.8566 23.4734 -34.6024 -7.4054 -0.0000 0.0000 -40.2999 95.9492 -47.7597 -98.0122 -7.1250 0.0000 -0.0000 161.6861 -54.7591 -175.4971 0.0000 -0.0000 0.0000 19.7819 -24.0441 -20.3081 -20.7491 31.5343 -5.9182 0.0000 -0.0000 -15.4579 -38.9442 29.3595 -21.6153 7.1250 -0.0000 -0.0000 -4.5617 5.7963 -5.0143
12.1020 14.8865 9.3363 122.2570 173.1970 -91.7166 0.0000 0.0000 0.0000 34.9284 13.5162 -67.0705 6.8634 15.2158 48.3557 1.8205 11.5952 -31.9034 0.0696 1.7016 4.6816 0.0000 0.0000 0.0000 25.1021 -2.0161 9.1123 0.0000 -0.0000 0.0000 1.1678 -30.6530 14.9476 -0.9318 -6.1489 17.2172 -18.1872 -0.5603 21.4516 -0.2624 -5.3383 -0.8611 11.0845 -1.4546 -10.9257 -5.8305 -1.0334 -19.8126 14.2743 -0.9824 -0.3383 5.3433 0.1812 3.2249 0.0000 -0.0000 0.0000 -1.6860 -14.1635 -49.2875 18.2745 -28.5072 -4.6795 -0.0000 0.0000 -37.1797 77.6570 49.6704 73.9843 -7.1250 0.0000 -0.0000 154.7235 -69.4970 -164.8407 0.0000 -0.0000 0.0000 22.0556 -24.7005 -21.4003 -20.0933 30.7545 -5.5790 0.0000 -0.0000 -13.8072 -39.1325 28.7024 -21.3430 7.1250 -0.0000 -0.0000 -4.8256 5.1260 -5.2555
12.0495 14.6682 8.7967 123.9070 177.1740 -94.9972 0.0000 0.0000 0.0000 30.2360 12.7733 -68.9575 7.9764 16.1019 52.4778 2.6375 10.2262 -35.6028 0.0023 0.3116 0.8561 0.0000 0.0000 0.0000 26.4233 -5.1668 7.7664 0.0000 0.0000 -0.0000 0.5938 -26.6679 14.9628 -0.8467 -5.8689 16.4046 -18.7605 -1.1050 22.7189 0.5756 -6.3206 -0.5963 12.6198 -1.8805 -10.8152 -5.9078 -1.3254 -19.9184 15.2755 -1.5887 0.8858 5.6395 -0.0394 3.7034 -0.0000 -0.0000 0.0000 -3.1681 -12.7058 -48.5809 14.9295 -24.0478 -3.1972 -0.0000 0.0000 -36.2187 76.8105 51.2363 73.2715 -7.1250 0.0000 -0.0000 157.8567 -69.7832 -166.6488 -0.0000 -0.0000 0.0000 23.8633 -25.1391 -24.2943 -19.2758 29.7599 -5.1670 0.0000 -0.0000 -13.1265 -39.6047 27.8510 -21.1337 7.1250 -0.0000 -0.0000 -5.2947 4.3311 -5.7031
